<mxfile host="app.diagrams.net" modified="2023-03-30T03:55:48.769Z" agent="Mozilla/5.0 (Windows NT 10.0; Win64; x64) AppleWebKit/537.36 (KHTML, like Gecko) Chrome/111.0.0.0 Safari/537.36 Edg/111.0.1661.54" etag="QIUMtPWeJqmMWHeEJlb-" version="21.1.0" type="device" pages="2">
  <diagram name="login" id="0AfcGC7DFYbByUOCscQq">
    <mxGraphModel dx="1398" dy="655" grid="1" gridSize="10" guides="1" tooltips="1" connect="1" arrows="1" fold="1" page="1" pageScale="1" pageWidth="827" pageHeight="1169" math="0" shadow="0">
      <root>
        <mxCell id="0" />
        <mxCell id="1" parent="0" />
        <mxCell id="bUdYP38UbJY0fRdm7hgM-18" style="edgeStyle=orthogonalEdgeStyle;rounded=0;orthogonalLoop=1;jettySize=auto;html=1;" parent="1" source="bUdYP38UbJY0fRdm7hgM-1" target="bUdYP38UbJY0fRdm7hgM-2" edge="1">
          <mxGeometry relative="1" as="geometry" />
        </mxCell>
        <mxCell id="bUdYP38UbJY0fRdm7hgM-19" style="edgeStyle=orthogonalEdgeStyle;rounded=0;orthogonalLoop=1;jettySize=auto;html=1;entryX=0.38;entryY=1.025;entryDx=0;entryDy=0;entryPerimeter=0;" parent="1" source="bUdYP38UbJY0fRdm7hgM-1" target="bUdYP38UbJY0fRdm7hgM-3" edge="1">
          <mxGeometry relative="1" as="geometry" />
        </mxCell>
        <mxCell id="bUdYP38UbJY0fRdm7hgM-20" style="edgeStyle=orthogonalEdgeStyle;rounded=0;orthogonalLoop=1;jettySize=auto;html=1;entryX=0;entryY=0.5;entryDx=0;entryDy=0;" parent="1" source="bUdYP38UbJY0fRdm7hgM-1" target="bUdYP38UbJY0fRdm7hgM-6" edge="1">
          <mxGeometry relative="1" as="geometry" />
        </mxCell>
        <mxCell id="bUdYP38UbJY0fRdm7hgM-21" style="edgeStyle=orthogonalEdgeStyle;rounded=0;orthogonalLoop=1;jettySize=auto;html=1;entryX=0;entryY=0.5;entryDx=0;entryDy=0;" parent="1" source="bUdYP38UbJY0fRdm7hgM-1" target="bUdYP38UbJY0fRdm7hgM-11" edge="1">
          <mxGeometry relative="1" as="geometry" />
        </mxCell>
        <mxCell id="bUdYP38UbJY0fRdm7hgM-22" style="edgeStyle=orthogonalEdgeStyle;rounded=0;orthogonalLoop=1;jettySize=auto;html=1;entryX=0.38;entryY=-0.086;entryDx=0;entryDy=0;entryPerimeter=0;" parent="1" source="bUdYP38UbJY0fRdm7hgM-1" target="bUdYP38UbJY0fRdm7hgM-12" edge="1">
          <mxGeometry relative="1" as="geometry" />
        </mxCell>
        <mxCell id="bUdYP38UbJY0fRdm7hgM-23" style="edgeStyle=orthogonalEdgeStyle;rounded=0;orthogonalLoop=1;jettySize=auto;html=1;entryX=0.5;entryY=0;entryDx=0;entryDy=0;" parent="1" source="bUdYP38UbJY0fRdm7hgM-1" target="bUdYP38UbJY0fRdm7hgM-4" edge="1">
          <mxGeometry relative="1" as="geometry" />
        </mxCell>
        <mxCell id="bUdYP38UbJY0fRdm7hgM-24" style="edgeStyle=orthogonalEdgeStyle;rounded=0;orthogonalLoop=1;jettySize=auto;html=1;entryX=0.5;entryY=0;entryDx=0;entryDy=0;" parent="1" source="bUdYP38UbJY0fRdm7hgM-1" target="bUdYP38UbJY0fRdm7hgM-13" edge="1">
          <mxGeometry relative="1" as="geometry" />
        </mxCell>
        <mxCell id="bUdYP38UbJY0fRdm7hgM-25" style="edgeStyle=orthogonalEdgeStyle;rounded=0;orthogonalLoop=1;jettySize=auto;html=1;entryX=1;entryY=0.5;entryDx=0;entryDy=0;" parent="1" source="bUdYP38UbJY0fRdm7hgM-1" target="bUdYP38UbJY0fRdm7hgM-5" edge="1">
          <mxGeometry relative="1" as="geometry" />
        </mxCell>
        <mxCell id="bUdYP38UbJY0fRdm7hgM-26" style="edgeStyle=orthogonalEdgeStyle;rounded=0;orthogonalLoop=1;jettySize=auto;html=1;entryX=1;entryY=0.5;entryDx=0;entryDy=0;" parent="1" source="bUdYP38UbJY0fRdm7hgM-1" target="bUdYP38UbJY0fRdm7hgM-10" edge="1">
          <mxGeometry relative="1" as="geometry" />
        </mxCell>
        <mxCell id="bUdYP38UbJY0fRdm7hgM-49" style="edgeStyle=orthogonalEdgeStyle;rounded=0;orthogonalLoop=1;jettySize=auto;html=1;entryX=0.5;entryY=0;entryDx=0;entryDy=0;endArrow=none;endFill=0;strokeColor=#CC0000;" parent="1" source="bUdYP38UbJY0fRdm7hgM-1" target="bUdYP38UbJY0fRdm7hgM-46" edge="1">
          <mxGeometry relative="1" as="geometry" />
        </mxCell>
        <mxCell id="bUdYP38UbJY0fRdm7hgM-78" style="edgeStyle=orthogonalEdgeStyle;rounded=0;orthogonalLoop=1;jettySize=auto;html=1;entryX=0.5;entryY=0;entryDx=0;entryDy=0;endArrow=none;endFill=0;strokeColor=#CCCC00;" parent="1" source="bUdYP38UbJY0fRdm7hgM-1" target="bUdYP38UbJY0fRdm7hgM-74" edge="1">
          <mxGeometry relative="1" as="geometry" />
        </mxCell>
        <mxCell id="bUdYP38UbJY0fRdm7hgM-1" value="usuario" style="rounded=1;arcSize=10;whiteSpace=wrap;html=1;align=center;" parent="1" vertex="1">
          <mxGeometry x="140" y="80" width="120" height="40" as="geometry" />
        </mxCell>
        <mxCell id="bUdYP38UbJY0fRdm7hgM-2" value="id.Tusuario" style="ellipse;whiteSpace=wrap;html=1;align=center;" parent="1" vertex="1">
          <mxGeometry x="70" width="100" height="40" as="geometry" />
        </mxCell>
        <mxCell id="bUdYP38UbJY0fRdm7hgM-3" value="id.plantel" style="ellipse;whiteSpace=wrap;html=1;align=center;" parent="1" vertex="1">
          <mxGeometry x="230" width="100" height="40" as="geometry" />
        </mxCell>
        <mxCell id="bUdYP38UbJY0fRdm7hgM-4" value="a.paterno" style="ellipse;whiteSpace=wrap;html=1;align=center;" parent="1" vertex="1">
          <mxGeometry x="70" y="160" width="100" height="40" as="geometry" />
        </mxCell>
        <mxCell id="bUdYP38UbJY0fRdm7hgM-5" value="id.usuario" style="ellipse;whiteSpace=wrap;html=1;align=center;fontStyle=4;" parent="1" vertex="1">
          <mxGeometry y="50" width="100" height="40" as="geometry" />
        </mxCell>
        <mxCell id="bUdYP38UbJY0fRdm7hgM-6" value="contraseña" style="ellipse;whiteSpace=wrap;html=1;align=center;" parent="1" vertex="1">
          <mxGeometry x="314" y="50" width="100" height="40" as="geometry" />
        </mxCell>
        <mxCell id="bUdYP38UbJY0fRdm7hgM-10" value="nombre" style="ellipse;whiteSpace=wrap;html=1;align=center;" parent="1" vertex="1">
          <mxGeometry y="110" width="100" height="40" as="geometry" />
        </mxCell>
        <mxCell id="bUdYP38UbJY0fRdm7hgM-11" value="Correo electrónico" style="ellipse;whiteSpace=wrap;html=1;align=center;" parent="1" vertex="1">
          <mxGeometry x="314" y="110" width="100" height="40" as="geometry" />
        </mxCell>
        <mxCell id="bUdYP38UbJY0fRdm7hgM-12" value="teléfono" style="ellipse;whiteSpace=wrap;html=1;align=center;" parent="1" vertex="1">
          <mxGeometry x="230" y="160" width="100" height="40" as="geometry" />
        </mxCell>
        <mxCell id="bUdYP38UbJY0fRdm7hgM-13" value="a.materno" style="ellipse;whiteSpace=wrap;html=1;align=center;" parent="1" vertex="1">
          <mxGeometry x="150" y="200" width="100" height="40" as="geometry" />
        </mxCell>
        <mxCell id="bUdYP38UbJY0fRdm7hgM-27" style="edgeStyle=orthogonalEdgeStyle;rounded=0;orthogonalLoop=1;jettySize=auto;html=1;" parent="1" source="bUdYP38UbJY0fRdm7hgM-36" target="bUdYP38UbJY0fRdm7hgM-37" edge="1">
          <mxGeometry relative="1" as="geometry" />
        </mxCell>
        <mxCell id="bUdYP38UbJY0fRdm7hgM-28" style="edgeStyle=orthogonalEdgeStyle;rounded=0;orthogonalLoop=1;jettySize=auto;html=1;entryX=0.38;entryY=1.025;entryDx=0;entryDy=0;entryPerimeter=0;" parent="1" source="bUdYP38UbJY0fRdm7hgM-36" target="bUdYP38UbJY0fRdm7hgM-38" edge="1">
          <mxGeometry relative="1" as="geometry" />
        </mxCell>
        <mxCell id="bUdYP38UbJY0fRdm7hgM-30" style="edgeStyle=orthogonalEdgeStyle;rounded=0;orthogonalLoop=1;jettySize=auto;html=1;entryX=0;entryY=0.5;entryDx=0;entryDy=0;" parent="1" source="bUdYP38UbJY0fRdm7hgM-36" target="bUdYP38UbJY0fRdm7hgM-43" edge="1">
          <mxGeometry relative="1" as="geometry" />
        </mxCell>
        <mxCell id="bUdYP38UbJY0fRdm7hgM-31" style="edgeStyle=orthogonalEdgeStyle;rounded=0;orthogonalLoop=1;jettySize=auto;html=1;entryX=0.38;entryY=-0.086;entryDx=0;entryDy=0;entryPerimeter=0;" parent="1" source="bUdYP38UbJY0fRdm7hgM-36" target="bUdYP38UbJY0fRdm7hgM-44" edge="1">
          <mxGeometry relative="1" as="geometry" />
        </mxCell>
        <mxCell id="bUdYP38UbJY0fRdm7hgM-32" style="edgeStyle=orthogonalEdgeStyle;rounded=0;orthogonalLoop=1;jettySize=auto;html=1;entryX=0.5;entryY=0;entryDx=0;entryDy=0;" parent="1" source="bUdYP38UbJY0fRdm7hgM-36" target="bUdYP38UbJY0fRdm7hgM-39" edge="1">
          <mxGeometry relative="1" as="geometry" />
        </mxCell>
        <mxCell id="bUdYP38UbJY0fRdm7hgM-34" style="edgeStyle=orthogonalEdgeStyle;rounded=0;orthogonalLoop=1;jettySize=auto;html=1;entryX=1;entryY=0.5;entryDx=0;entryDy=0;" parent="1" source="bUdYP38UbJY0fRdm7hgM-36" target="bUdYP38UbJY0fRdm7hgM-40" edge="1">
          <mxGeometry relative="1" as="geometry" />
        </mxCell>
        <mxCell id="bUdYP38UbJY0fRdm7hgM-35" style="edgeStyle=orthogonalEdgeStyle;rounded=0;orthogonalLoop=1;jettySize=auto;html=1;entryX=1;entryY=0.5;entryDx=0;entryDy=0;" parent="1" source="bUdYP38UbJY0fRdm7hgM-36" target="bUdYP38UbJY0fRdm7hgM-42" edge="1">
          <mxGeometry relative="1" as="geometry" />
        </mxCell>
        <mxCell id="bUdYP38UbJY0fRdm7hgM-50" style="edgeStyle=orthogonalEdgeStyle;rounded=0;orthogonalLoop=1;jettySize=auto;html=1;exitX=1;exitY=0.5;exitDx=0;exitDy=0;entryX=0.5;entryY=1;entryDx=0;entryDy=0;endArrow=none;endFill=0;strokeColor=#CC0000;" parent="1" source="bUdYP38UbJY0fRdm7hgM-36" target="bUdYP38UbJY0fRdm7hgM-46" edge="1">
          <mxGeometry relative="1" as="geometry">
            <Array as="points">
              <mxPoint x="260" y="390" />
              <mxPoint x="440" y="390" />
            </Array>
          </mxGeometry>
        </mxCell>
        <mxCell id="bUdYP38UbJY0fRdm7hgM-88" style="edgeStyle=orthogonalEdgeStyle;rounded=0;orthogonalLoop=1;jettySize=auto;html=1;exitX=1;exitY=0.5;exitDx=0;exitDy=0;entryX=0;entryY=0.5;entryDx=0;entryDy=0;endArrow=none;endFill=0;strokeColor=#00CC00;" parent="1" source="bUdYP38UbJY0fRdm7hgM-36" target="bUdYP38UbJY0fRdm7hgM-89" edge="1">
          <mxGeometry relative="1" as="geometry">
            <mxPoint x="590" y="390" as="targetPoint" />
            <Array as="points">
              <mxPoint x="260" y="390" />
            </Array>
          </mxGeometry>
        </mxCell>
        <mxCell id="bUdYP38UbJY0fRdm7hgM-36" value="plantel" style="rounded=1;arcSize=10;whiteSpace=wrap;html=1;align=center;" parent="1" vertex="1">
          <mxGeometry x="140" y="400" width="120" height="40" as="geometry" />
        </mxCell>
        <mxCell id="bUdYP38UbJY0fRdm7hgM-37" value="id.municipio" style="ellipse;whiteSpace=wrap;html=1;align=center;" parent="1" vertex="1">
          <mxGeometry x="90" y="320" width="100" height="40" as="geometry" />
        </mxCell>
        <mxCell id="bUdYP38UbJY0fRdm7hgM-38" value="clave" style="ellipse;whiteSpace=wrap;html=1;align=center;" parent="1" vertex="1">
          <mxGeometry x="210" y="320" width="100" height="40" as="geometry" />
        </mxCell>
        <mxCell id="bUdYP38UbJY0fRdm7hgM-39" value="Direcion" style="ellipse;whiteSpace=wrap;html=1;align=center;" parent="1" vertex="1">
          <mxGeometry x="90" y="480" width="100" height="40" as="geometry" />
        </mxCell>
        <mxCell id="bUdYP38UbJY0fRdm7hgM-40" value="id.plantel" style="ellipse;whiteSpace=wrap;html=1;align=center;fontStyle=4;" parent="1" vertex="1">
          <mxGeometry y="370" width="100" height="40" as="geometry" />
        </mxCell>
        <mxCell id="bUdYP38UbJY0fRdm7hgM-42" value="nombre.p" style="ellipse;whiteSpace=wrap;html=1;align=center;" parent="1" vertex="1">
          <mxGeometry y="430" width="100" height="40" as="geometry" />
        </mxCell>
        <mxCell id="bUdYP38UbJY0fRdm7hgM-43" value="correo electrónico.p" style="ellipse;whiteSpace=wrap;html=1;align=center;" parent="1" vertex="1">
          <mxGeometry x="280" y="400" width="100" height="40" as="geometry" />
        </mxCell>
        <mxCell id="bUdYP38UbJY0fRdm7hgM-44" value="telefono.p" style="ellipse;whiteSpace=wrap;html=1;align=center;" parent="1" vertex="1">
          <mxGeometry x="214" y="480" width="100" height="40" as="geometry" />
        </mxCell>
        <mxCell id="bUdYP38UbJY0fRdm7hgM-46" value="p.tiene" style="shape=rhombus;perimeter=rhombusPerimeter;whiteSpace=wrap;html=1;align=center;" parent="1" vertex="1">
          <mxGeometry x="380" y="230" width="120" height="60" as="geometry" />
        </mxCell>
        <mxCell id="bUdYP38UbJY0fRdm7hgM-54" style="edgeStyle=orthogonalEdgeStyle;rounded=0;orthogonalLoop=1;jettySize=auto;html=1;entryX=0;entryY=0.5;entryDx=0;entryDy=0;" parent="1" source="bUdYP38UbJY0fRdm7hgM-60" target="bUdYP38UbJY0fRdm7hgM-67" edge="1">
          <mxGeometry relative="1" as="geometry" />
        </mxCell>
        <mxCell id="bUdYP38UbJY0fRdm7hgM-57" style="edgeStyle=orthogonalEdgeStyle;rounded=0;orthogonalLoop=1;jettySize=auto;html=1;entryX=0.5;entryY=0;entryDx=0;entryDy=0;" parent="1" source="bUdYP38UbJY0fRdm7hgM-60" target="bUdYP38UbJY0fRdm7hgM-69" edge="1">
          <mxGeometry relative="1" as="geometry" />
        </mxCell>
        <mxCell id="bUdYP38UbJY0fRdm7hgM-59" style="edgeStyle=orthogonalEdgeStyle;rounded=0;orthogonalLoop=1;jettySize=auto;html=1;entryX=1;entryY=0.5;entryDx=0;entryDy=0;" parent="1" source="bUdYP38UbJY0fRdm7hgM-60" edge="1">
          <mxGeometry relative="1" as="geometry">
            <mxPoint x="110" y="620" as="targetPoint" />
          </mxGeometry>
        </mxCell>
        <mxCell id="bUdYP38UbJY0fRdm7hgM-79" style="edgeStyle=orthogonalEdgeStyle;rounded=0;orthogonalLoop=1;jettySize=auto;html=1;entryX=0.5;entryY=1;entryDx=0;entryDy=0;endArrow=none;endFill=0;strokeColor=#CCCC00;" parent="1" source="bUdYP38UbJY0fRdm7hgM-60" target="bUdYP38UbJY0fRdm7hgM-74" edge="1">
          <mxGeometry relative="1" as="geometry">
            <Array as="points">
              <mxPoint x="200" y="560" />
              <mxPoint x="560" y="560" />
            </Array>
          </mxGeometry>
        </mxCell>
        <mxCell id="bUdYP38UbJY0fRdm7hgM-60" value="Tusuario" style="rounded=1;arcSize=10;whiteSpace=wrap;html=1;align=center;" parent="1" vertex="1">
          <mxGeometry x="140" y="600" width="120" height="40" as="geometry" />
        </mxCell>
        <mxCell id="bUdYP38UbJY0fRdm7hgM-67" value="Descripción" style="ellipse;whiteSpace=wrap;html=1;align=center;" parent="1" vertex="1">
          <mxGeometry x="290" y="600" width="100" height="40" as="geometry" />
        </mxCell>
        <mxCell id="bUdYP38UbJY0fRdm7hgM-69" value="nombre.t" style="ellipse;whiteSpace=wrap;html=1;align=center;" parent="1" vertex="1">
          <mxGeometry x="150" y="660" width="100" height="40" as="geometry" />
        </mxCell>
        <mxCell id="bUdYP38UbJY0fRdm7hgM-71" value="id.Tusuario" style="ellipse;whiteSpace=wrap;html=1;align=center;fontStyle=4;" parent="1" vertex="1">
          <mxGeometry x="10" y="600" width="100" height="40" as="geometry" />
        </mxCell>
        <mxCell id="bUdYP38UbJY0fRdm7hgM-74" value="u.tiene" style="shape=rhombus;perimeter=rhombusPerimeter;whiteSpace=wrap;html=1;align=center;" parent="1" vertex="1">
          <mxGeometry x="500" y="230" width="120" height="60" as="geometry" />
        </mxCell>
        <mxCell id="bUdYP38UbJY0fRdm7hgM-80" style="edgeStyle=orthogonalEdgeStyle;rounded=0;orthogonalLoop=1;jettySize=auto;html=1;entryX=0;entryY=0.5;entryDx=0;entryDy=0;" parent="1" source="bUdYP38UbJY0fRdm7hgM-83" target="bUdYP38UbJY0fRdm7hgM-84" edge="1">
          <mxGeometry relative="1" as="geometry" />
        </mxCell>
        <mxCell id="bUdYP38UbJY0fRdm7hgM-81" style="edgeStyle=orthogonalEdgeStyle;rounded=0;orthogonalLoop=1;jettySize=auto;html=1;entryX=0.5;entryY=0;entryDx=0;entryDy=0;" parent="1" source="bUdYP38UbJY0fRdm7hgM-83" target="bUdYP38UbJY0fRdm7hgM-85" edge="1">
          <mxGeometry relative="1" as="geometry" />
        </mxCell>
        <mxCell id="bUdYP38UbJY0fRdm7hgM-82" style="edgeStyle=orthogonalEdgeStyle;rounded=0;orthogonalLoop=1;jettySize=auto;html=1;entryX=1;entryY=0.5;entryDx=0;entryDy=0;" parent="1" source="bUdYP38UbJY0fRdm7hgM-83" edge="1">
          <mxGeometry relative="1" as="geometry">
            <mxPoint x="110" y="780" as="targetPoint" />
          </mxGeometry>
        </mxCell>
        <mxCell id="bUdYP38UbJY0fRdm7hgM-90" style="edgeStyle=orthogonalEdgeStyle;rounded=0;orthogonalLoop=1;jettySize=auto;html=1;entryX=0.5;entryY=1;entryDx=0;entryDy=0;endArrow=none;endFill=0;strokeColor=#00CC00;" parent="1" source="bUdYP38UbJY0fRdm7hgM-83" target="bUdYP38UbJY0fRdm7hgM-89" edge="1">
          <mxGeometry relative="1" as="geometry">
            <Array as="points">
              <mxPoint x="200" y="720" />
              <mxPoint x="650" y="720" />
            </Array>
          </mxGeometry>
        </mxCell>
        <mxCell id="bUdYP38UbJY0fRdm7hgM-99" style="edgeStyle=orthogonalEdgeStyle;rounded=0;orthogonalLoop=1;jettySize=auto;html=1;entryX=0.5;entryY=0;entryDx=0;entryDy=0;strokeColor=#00CCCC;endArrow=none;endFill=0;" parent="1" source="bUdYP38UbJY0fRdm7hgM-83" target="bUdYP38UbJY0fRdm7hgM-98" edge="1">
          <mxGeometry relative="1" as="geometry">
            <Array as="points">
              <mxPoint x="200" y="720" />
              <mxPoint x="520" y="720" />
            </Array>
          </mxGeometry>
        </mxCell>
        <mxCell id="bUdYP38UbJY0fRdm7hgM-83" value="municipio" style="rounded=1;arcSize=10;whiteSpace=wrap;html=1;align=center;" parent="1" vertex="1">
          <mxGeometry x="140" y="760" width="120" height="40" as="geometry" />
        </mxCell>
        <mxCell id="bUdYP38UbJY0fRdm7hgM-84" value="id.estado" style="ellipse;whiteSpace=wrap;html=1;align=center;" parent="1" vertex="1">
          <mxGeometry x="290" y="760" width="100" height="40" as="geometry" />
        </mxCell>
        <mxCell id="bUdYP38UbJY0fRdm7hgM-85" value="nombre.m" style="ellipse;whiteSpace=wrap;html=1;align=center;" parent="1" vertex="1">
          <mxGeometry x="150" y="820" width="100" height="40" as="geometry" />
        </mxCell>
        <mxCell id="bUdYP38UbJY0fRdm7hgM-86" value="id.municipio" style="ellipse;whiteSpace=wrap;html=1;align=center;fontStyle=4;" parent="1" vertex="1">
          <mxGeometry x="10" y="760" width="100" height="40" as="geometry" />
        </mxCell>
        <mxCell id="bUdYP38UbJY0fRdm7hgM-89" value="m.tiene" style="shape=rhombus;perimeter=rhombusPerimeter;whiteSpace=wrap;html=1;align=center;" parent="1" vertex="1">
          <mxGeometry x="590" y="360" width="120" height="60" as="geometry" />
        </mxCell>
        <mxCell id="bUdYP38UbJY0fRdm7hgM-91" style="edgeStyle=orthogonalEdgeStyle;rounded=0;orthogonalLoop=1;jettySize=auto;html=1;entryX=0.5;entryY=1;entryDx=0;entryDy=0;strokeColor=#00CCCC;endArrow=none;endFill=0;" parent="1" source="bUdYP38UbJY0fRdm7hgM-94" target="bUdYP38UbJY0fRdm7hgM-98" edge="1">
          <mxGeometry relative="1" as="geometry">
            <mxPoint x="290" y="940" as="targetPoint" />
          </mxGeometry>
        </mxCell>
        <mxCell id="bUdYP38UbJY0fRdm7hgM-92" style="edgeStyle=orthogonalEdgeStyle;rounded=0;orthogonalLoop=1;jettySize=auto;html=1;entryX=0.5;entryY=0;entryDx=0;entryDy=0;" parent="1" source="bUdYP38UbJY0fRdm7hgM-94" target="bUdYP38UbJY0fRdm7hgM-96" edge="1">
          <mxGeometry relative="1" as="geometry" />
        </mxCell>
        <mxCell id="bUdYP38UbJY0fRdm7hgM-93" style="edgeStyle=orthogonalEdgeStyle;rounded=0;orthogonalLoop=1;jettySize=auto;html=1;entryX=1;entryY=0.5;entryDx=0;entryDy=0;" parent="1" source="bUdYP38UbJY0fRdm7hgM-94" edge="1">
          <mxGeometry relative="1" as="geometry">
            <mxPoint x="110" y="940" as="targetPoint" />
          </mxGeometry>
        </mxCell>
        <mxCell id="bUdYP38UbJY0fRdm7hgM-94" value="estado" style="rounded=1;arcSize=10;whiteSpace=wrap;html=1;align=center;" parent="1" vertex="1">
          <mxGeometry x="140" y="920" width="120" height="40" as="geometry" />
        </mxCell>
        <mxCell id="bUdYP38UbJY0fRdm7hgM-96" value="nombre.e" style="ellipse;whiteSpace=wrap;html=1;align=center;" parent="1" vertex="1">
          <mxGeometry x="150" y="980" width="100" height="40" as="geometry" />
        </mxCell>
        <mxCell id="bUdYP38UbJY0fRdm7hgM-97" value="id.estado" style="ellipse;whiteSpace=wrap;html=1;align=center;fontStyle=4;" parent="1" vertex="1">
          <mxGeometry x="10" y="920" width="100" height="40" as="geometry" />
        </mxCell>
        <mxCell id="bUdYP38UbJY0fRdm7hgM-98" value="e.tiene" style="shape=rhombus;perimeter=rhombusPerimeter;whiteSpace=wrap;html=1;align=center;" parent="1" vertex="1">
          <mxGeometry x="460" y="860" width="120" height="60" as="geometry" />
        </mxCell>
      </root>
    </mxGraphModel>
  </diagram>
  <diagram id="z4dMl4nydZPoMqj0MBvt" name="laboratorio">
    <mxGraphModel dx="1997" dy="936" grid="1" gridSize="10" guides="1" tooltips="1" connect="1" arrows="1" fold="1" page="1" pageScale="1" pageWidth="827" pageHeight="1169" math="0" shadow="0">
      <root>
        <mxCell id="0" />
        <mxCell id="1" parent="0" />
        <mxCell id="-PX3ncwfm68J29S55Bo9-3" style="edgeStyle=orthogonalEdgeStyle;rounded=0;orthogonalLoop=1;jettySize=auto;html=1;entryX=0;entryY=0.5;entryDx=0;entryDy=0;" parent="1" source="-PX3ncwfm68J29S55Bo9-10" target="-PX3ncwfm68J29S55Bo9-15" edge="1">
          <mxGeometry relative="1" as="geometry" />
        </mxCell>
        <mxCell id="-PX3ncwfm68J29S55Bo9-7" style="edgeStyle=orthogonalEdgeStyle;rounded=0;orthogonalLoop=1;jettySize=auto;html=1;entryX=0.5;entryY=0;entryDx=0;entryDy=0;" parent="1" source="-PX3ncwfm68J29S55Bo9-10" target="-PX3ncwfm68J29S55Bo9-19" edge="1">
          <mxGeometry relative="1" as="geometry" />
        </mxCell>
        <mxCell id="-PX3ncwfm68J29S55Bo9-8" style="edgeStyle=orthogonalEdgeStyle;rounded=0;orthogonalLoop=1;jettySize=auto;html=1;entryX=1;entryY=0.5;entryDx=0;entryDy=0;" parent="1" source="-PX3ncwfm68J29S55Bo9-10" target="-PX3ncwfm68J29S55Bo9-20" edge="1">
          <mxGeometry relative="1" as="geometry">
            <mxPoint x="100" y="70" as="targetPoint" />
          </mxGeometry>
        </mxCell>
        <mxCell id="-PX3ncwfm68J29S55Bo9-22" style="edgeStyle=orthogonalEdgeStyle;rounded=0;orthogonalLoop=1;jettySize=auto;html=1;entryX=0.5;entryY=1;entryDx=0;entryDy=0;" parent="1" source="-PX3ncwfm68J29S55Bo9-10" target="-PX3ncwfm68J29S55Bo9-11" edge="1">
          <mxGeometry relative="1" as="geometry">
            <Array as="points">
              <mxPoint x="200" y="70" />
              <mxPoint x="140" y="70" />
            </Array>
          </mxGeometry>
        </mxCell>
        <mxCell id="-PX3ncwfm68J29S55Bo9-23" style="edgeStyle=orthogonalEdgeStyle;rounded=0;orthogonalLoop=1;jettySize=auto;html=1;entryX=0.5;entryY=1;entryDx=0;entryDy=0;" parent="1" source="-PX3ncwfm68J29S55Bo9-10" target="-PX3ncwfm68J29S55Bo9-21" edge="1">
          <mxGeometry relative="1" as="geometry">
            <Array as="points">
              <mxPoint x="200" y="70" />
              <mxPoint x="260" y="70" />
            </Array>
          </mxGeometry>
        </mxCell>
        <mxCell id="-PX3ncwfm68J29S55Bo9-58" style="edgeStyle=orthogonalEdgeStyle;rounded=0;orthogonalLoop=1;jettySize=auto;html=1;entryX=0.5;entryY=0;entryDx=0;entryDy=0;endArrow=none;endFill=0;" parent="1" source="-PX3ncwfm68J29S55Bo9-10" target="-PX3ncwfm68J29S55Bo9-57" edge="1">
          <mxGeometry relative="1" as="geometry">
            <Array as="points">
              <mxPoint x="530" y="80" />
            </Array>
          </mxGeometry>
        </mxCell>
        <mxCell id="-PX3ncwfm68J29S55Bo9-10" value="inventario" style="rounded=1;arcSize=10;whiteSpace=wrap;html=1;align=center;" parent="1" vertex="1">
          <mxGeometry x="140" y="80" width="120" height="40" as="geometry" />
        </mxCell>
        <mxCell id="-PX3ncwfm68J29S55Bo9-11" value="nombre.h" style="ellipse;whiteSpace=wrap;html=1;align=center;" parent="1" vertex="1">
          <mxGeometry x="90" y="10" width="100" height="40" as="geometry" />
        </mxCell>
        <mxCell id="-PX3ncwfm68J29S55Bo9-15" value="cantidad" style="ellipse;whiteSpace=wrap;html=1;align=center;" parent="1" vertex="1">
          <mxGeometry x="280" y="80" width="100" height="40" as="geometry" />
        </mxCell>
        <mxCell id="-PX3ncwfm68J29S55Bo9-19" value="id.laboratorio&amp;nbsp;" style="ellipse;whiteSpace=wrap;html=1;align=center;" parent="1" vertex="1">
          <mxGeometry x="150" y="140" width="100" height="40" as="geometry" />
        </mxCell>
        <mxCell id="-PX3ncwfm68J29S55Bo9-20" value="id.inventario&amp;nbsp;" style="ellipse;whiteSpace=wrap;html=1;align=center;fontStyle=4;" parent="1" vertex="1">
          <mxGeometry x="10" y="80" width="100" height="40" as="geometry" />
        </mxCell>
        <mxCell id="-PX3ncwfm68J29S55Bo9-21" value="descripción.h&amp;nbsp;" style="ellipse;whiteSpace=wrap;html=1;align=center;" parent="1" vertex="1">
          <mxGeometry x="210" y="10" width="100" height="40" as="geometry" />
        </mxCell>
        <mxCell id="-PX3ncwfm68J29S55Bo9-43" style="edgeStyle=orthogonalEdgeStyle;rounded=0;orthogonalLoop=1;jettySize=auto;html=1;entryX=0;entryY=0.5;entryDx=0;entryDy=0;" parent="1" source="-PX3ncwfm68J29S55Bo9-48" target="-PX3ncwfm68J29S55Bo9-50" edge="1">
          <mxGeometry relative="1" as="geometry" />
        </mxCell>
        <mxCell id="-PX3ncwfm68J29S55Bo9-45" style="edgeStyle=orthogonalEdgeStyle;rounded=0;orthogonalLoop=1;jettySize=auto;html=1;entryX=1;entryY=0.5;entryDx=0;entryDy=0;" parent="1" source="-PX3ncwfm68J29S55Bo9-48" target="-PX3ncwfm68J29S55Bo9-52" edge="1">
          <mxGeometry relative="1" as="geometry">
            <mxPoint x="105" y="230" as="targetPoint" />
          </mxGeometry>
        </mxCell>
        <mxCell id="-PX3ncwfm68J29S55Bo9-59" style="edgeStyle=orthogonalEdgeStyle;rounded=0;orthogonalLoop=1;jettySize=auto;html=1;entryX=0.5;entryY=1;entryDx=0;entryDy=0;endArrow=none;endFill=0;" parent="1" source="-PX3ncwfm68J29S55Bo9-48" target="-PX3ncwfm68J29S55Bo9-57" edge="1">
          <mxGeometry relative="1" as="geometry">
            <Array as="points">
              <mxPoint x="205" y="230" />
              <mxPoint x="530" y="230" />
            </Array>
          </mxGeometry>
        </mxCell>
        <mxCell id="-PX3ncwfm68J29S55Bo9-70" style="edgeStyle=orthogonalEdgeStyle;rounded=0;orthogonalLoop=1;jettySize=auto;html=1;entryX=0.5;entryY=0;entryDx=0;entryDy=0;endArrow=none;endFill=0;" parent="1" source="-PX3ncwfm68J29S55Bo9-48" target="-PX3ncwfm68J29S55Bo9-69" edge="1">
          <mxGeometry relative="1" as="geometry">
            <Array as="points">
              <mxPoint x="205" y="290" />
              <mxPoint x="530" y="290" />
            </Array>
          </mxGeometry>
        </mxCell>
        <mxCell id="-PX3ncwfm68J29S55Bo9-48" value="laboratorio" style="rounded=1;arcSize=10;whiteSpace=wrap;html=1;align=center;" parent="1" vertex="1">
          <mxGeometry x="145" y="240" width="120" height="40" as="geometry" />
        </mxCell>
        <mxCell id="-PX3ncwfm68J29S55Bo9-50" value="nombre.l" style="ellipse;whiteSpace=wrap;html=1;align=center;" parent="1" vertex="1">
          <mxGeometry x="285" y="240" width="100" height="40" as="geometry" />
        </mxCell>
        <mxCell id="-PX3ncwfm68J29S55Bo9-52" value="id.laboratorio&amp;nbsp;" style="ellipse;whiteSpace=wrap;html=1;align=center;fontStyle=4;" parent="1" vertex="1">
          <mxGeometry x="15" y="240" width="100" height="40" as="geometry" />
        </mxCell>
        <mxCell id="-PX3ncwfm68J29S55Bo9-57" value="l.tiene" style="shape=rhombus;perimeter=rhombusPerimeter;whiteSpace=wrap;html=1;align=center;" parent="1" vertex="1">
          <mxGeometry x="470" y="130" width="120" height="60" as="geometry" />
        </mxCell>
        <mxCell id="-PX3ncwfm68J29S55Bo9-60" style="edgeStyle=orthogonalEdgeStyle;rounded=0;orthogonalLoop=1;jettySize=auto;html=1;entryX=0;entryY=0.5;entryDx=0;entryDy=0;" parent="1" source="-PX3ncwfm68J29S55Bo9-64" target="-PX3ncwfm68J29S55Bo9-66" edge="1">
          <mxGeometry relative="1" as="geometry" />
        </mxCell>
        <mxCell id="-PX3ncwfm68J29S55Bo9-61" style="edgeStyle=orthogonalEdgeStyle;rounded=0;orthogonalLoop=1;jettySize=auto;html=1;entryX=0.5;entryY=0;entryDx=0;entryDy=0;" parent="1" source="-PX3ncwfm68J29S55Bo9-64" target="-PX3ncwfm68J29S55Bo9-67" edge="1">
          <mxGeometry relative="1" as="geometry" />
        </mxCell>
        <mxCell id="-PX3ncwfm68J29S55Bo9-62" style="edgeStyle=orthogonalEdgeStyle;rounded=0;orthogonalLoop=1;jettySize=auto;html=1;entryX=1;entryY=0.5;entryDx=0;entryDy=0;" parent="1" source="-PX3ncwfm68J29S55Bo9-64" target="-PX3ncwfm68J29S55Bo9-68" edge="1">
          <mxGeometry relative="1" as="geometry">
            <mxPoint x="105" y="430" as="targetPoint" />
          </mxGeometry>
        </mxCell>
        <mxCell id="-PX3ncwfm68J29S55Bo9-71" style="edgeStyle=orthogonalEdgeStyle;rounded=0;orthogonalLoop=1;jettySize=auto;html=1;entryX=0.5;entryY=1;entryDx=0;entryDy=0;endArrow=none;endFill=0;" parent="1" source="-PX3ncwfm68J29S55Bo9-64" target="-PX3ncwfm68J29S55Bo9-69" edge="1">
          <mxGeometry relative="1" as="geometry">
            <Array as="points">
              <mxPoint x="205" y="430" />
              <mxPoint x="530" y="430" />
            </Array>
          </mxGeometry>
        </mxCell>
        <mxCell id="-PX3ncwfm68J29S55Bo9-64" value="clase" style="rounded=1;arcSize=10;whiteSpace=wrap;html=1;align=center;" parent="1" vertex="1">
          <mxGeometry x="145" y="440" width="120" height="40" as="geometry" />
        </mxCell>
        <mxCell id="-PX3ncwfm68J29S55Bo9-66" value="horario" style="ellipse;whiteSpace=wrap;html=1;align=center;" parent="1" vertex="1">
          <mxGeometry x="285" y="440" width="100" height="40" as="geometry" />
        </mxCell>
        <mxCell id="-PX3ncwfm68J29S55Bo9-67" value="id.laboratorio&amp;nbsp;" style="ellipse;whiteSpace=wrap;html=1;align=center;" parent="1" vertex="1">
          <mxGeometry x="155" y="500" width="100" height="40" as="geometry" />
        </mxCell>
        <mxCell id="-PX3ncwfm68J29S55Bo9-68" value="id.clase&amp;nbsp;" style="ellipse;whiteSpace=wrap;html=1;align=center;fontStyle=4;" parent="1" vertex="1">
          <mxGeometry x="15" y="440" width="100" height="40" as="geometry" />
        </mxCell>
        <mxCell id="-PX3ncwfm68J29S55Bo9-69" value="c.tiene" style="shape=rhombus;perimeter=rhombusPerimeter;whiteSpace=wrap;html=1;align=center;" parent="1" vertex="1">
          <mxGeometry x="470" y="330" width="120" height="60" as="geometry" />
        </mxCell>
        <mxCell id="-PX3ncwfm68J29S55Bo9-72" style="edgeStyle=orthogonalEdgeStyle;rounded=0;orthogonalLoop=1;jettySize=auto;html=1;entryX=0;entryY=0.5;entryDx=0;entryDy=0;" parent="1" source="-PX3ncwfm68J29S55Bo9-76" target="-PX3ncwfm68J29S55Bo9-78" edge="1">
          <mxGeometry relative="1" as="geometry" />
        </mxCell>
        <mxCell id="-PX3ncwfm68J29S55Bo9-73" style="edgeStyle=orthogonalEdgeStyle;rounded=0;orthogonalLoop=1;jettySize=auto;html=1;entryX=0.5;entryY=0;entryDx=0;entryDy=0;" parent="1" source="-PX3ncwfm68J29S55Bo9-76" target="-PX3ncwfm68J29S55Bo9-79" edge="1">
          <mxGeometry relative="1" as="geometry" />
        </mxCell>
        <mxCell id="-PX3ncwfm68J29S55Bo9-74" style="edgeStyle=orthogonalEdgeStyle;rounded=0;orthogonalLoop=1;jettySize=auto;html=1;entryX=1;entryY=0.5;entryDx=0;entryDy=0;" parent="1" source="-PX3ncwfm68J29S55Bo9-76" target="-PX3ncwfm68J29S55Bo9-80" edge="1">
          <mxGeometry relative="1" as="geometry">
            <mxPoint x="110" y="635" as="targetPoint" />
          </mxGeometry>
        </mxCell>
        <mxCell id="-PX3ncwfm68J29S55Bo9-75" style="edgeStyle=orthogonalEdgeStyle;rounded=0;orthogonalLoop=1;jettySize=auto;html=1;entryX=0.5;entryY=1;entryDx=0;entryDy=0;" parent="1" source="-PX3ncwfm68J29S55Bo9-76" target="-PX3ncwfm68J29S55Bo9-77" edge="1">
          <mxGeometry relative="1" as="geometry" />
        </mxCell>
        <mxCell id="-PX3ncwfm68J29S55Bo9-76" value="inventario.h" style="rounded=1;arcSize=10;whiteSpace=wrap;html=1;align=center;" parent="1" vertex="1">
          <mxGeometry x="150" y="645" width="120" height="40" as="geometry" />
        </mxCell>
        <mxCell id="-PX3ncwfm68J29S55Bo9-77" value="link.r" style="ellipse;whiteSpace=wrap;html=1;align=center;" parent="1" vertex="1">
          <mxGeometry x="160" y="585" width="100" height="40" as="geometry" />
        </mxCell>
        <mxCell id="-PX3ncwfm68J29S55Bo9-78" value="descripción.r" style="ellipse;whiteSpace=wrap;html=1;align=center;" parent="1" vertex="1">
          <mxGeometry x="290" y="645" width="100" height="40" as="geometry" />
        </mxCell>
        <mxCell id="-PX3ncwfm68J29S55Bo9-79" value="nombre.r" style="ellipse;whiteSpace=wrap;html=1;align=center;" parent="1" vertex="1">
          <mxGeometry x="160" y="705" width="100" height="40" as="geometry" />
        </mxCell>
        <mxCell id="-PX3ncwfm68J29S55Bo9-80" value="id.reseta&amp;nbsp;" style="ellipse;whiteSpace=wrap;html=1;align=center;fontStyle=4;" parent="1" vertex="1">
          <mxGeometry x="20" y="645" width="100" height="40" as="geometry" />
        </mxCell>
      </root>
    </mxGraphModel>
  </diagram>
</mxfile>
